<?xml version="1.0" encoding="utf-8"?>
<!-- Generator: Adobe Illustrator 25.2.0, SVG Export Plug-In . SVG Version: 6.00 Build 0)  -->
<svg version="1.1" id="Layer_1" xmlns="http://www.w3.org/2000/svg" xmlns:xlink="http://www.w3.org/1999/xlink" x="0px" y="0px"
	 viewBox="0 0 841.89 595.28" style="enable-background:new 0 0 841.89 595.28;" xml:space="preserve">
<style type="text/css">
	.st0{fill:#727373;}
	.st1{fill:#FFFFFF;}
	.st2{fill:#DDDDDD;}
	.st3{fill:#FFFFFF;stroke:#FFFFFF;stroke-miterlimit:10;}
	.st4{font-family:'MyriadPro-Regular';}
	.st5{font-size:12px;}
	.st6{fill:#4F4F4F;stroke:#000000;stroke-miterlimit:10;}
	.st7{fill:#545554;stroke:#2B2B2B;stroke-miterlimit:10;}
</style>
<path class="st0" d="M613.27,279.76v35.16c10.13,0,18.35-7.87,18.35-17.58v0C631.61,287.64,623.4,279.76,613.27,279.76z"/>
<rect x="406.66" y="279.76" class="st1" width="206.61" height="35.16"/>
<path class="st2" d="M228.11,299.98h-15.03c-1.55,0-2.8-1.04-2.8-2.32l0,0c0-1.28,1.25-2.32,2.8-2.32h15.03"/>
<path class="st3" d="M406.66,280.45c-9.52,0.36-24.67,1.19-43.22,3.38c-35,4.14-39.81,8.13-70.39,10.37
	c-20.71,1.52-45.79,1.7-48.15,1.71c-6.91,0.04-12.69-0.01-16.78-0.08v3.62c4.09-0.06,9.87-0.11,16.78-0.07
	c2.36,0.01,27.44,0.18,48.15,1.67c30.58,2.19,35.39,6.08,70.39,10.12c18.55,2.14,33.7,2.95,43.22,3.3"/>
<text transform="matrix(1 0 0 1 406.6567 299.981)" class="st4 st5">CORONA +ve</text>
<rect x="486" y="290.24" class="st6" width="30.27" height="12.84"/>
<path class="st7" d="M556.32,306.44L556.32,306.44c-5.4,0-9.78-4.38-9.78-9.78v0c0-5.4,4.38-9.78,9.78-9.78l0,0
	c5.4,0,9.78,4.38,9.78,9.78v0C566.1,302.06,561.72,306.44,556.32,306.44z"/>
</svg>
